<svg width="72" height="72" viewBox="0 0 72 72" fill="none" xmlns="http://www.w3.org/2000/svg">
<path d="M36.9954 4.26485L36.4972 5.52868L36.9954 4.26485ZM37.3368 68.3206L36.663 67.141L37.3368 68.3206ZM34.6612 68.3206L35.3351 67.141L34.6612 68.3206ZM66.5526 17.7873L65.1942 17.7698L66.5526 17.7873ZM64.8439 15.2427L64.3457 16.5065L64.8439 15.2427ZM66.5526 17.7873L65.1942 17.7698C64.9958 33.2139 62.2831 42.9438 57.5138 50.0752C52.7321 57.225 45.7753 61.9355 36.663 67.141L37.3368 68.3206L38.0107 69.5002C47.1611 64.2729 54.6119 59.3017 59.7722 51.5856C64.9451 43.8509 67.7089 33.5306 67.911 17.8047L66.5526 17.7873ZM34.6612 68.3206L35.3351 67.141C26.2228 61.9355 19.2657 57.225 14.4837 50.0751C9.71424 42.9438 7.00131 33.2139 6.80283 17.7698L5.44445 17.7873L4.08607 17.8047C4.28818 33.5307 7.05228 43.8509 12.2253 51.5856C17.3859 59.3017 24.837 64.2729 33.9874 69.5002L34.6612 68.3206ZM7.15322 15.2427L7.65141 16.5065L35.5008 5.52868L35.0026 4.26483L34.5044 3.00099L6.65503 13.9788L7.15322 15.2427ZM36.9954 4.26485L36.4972 5.52868L64.3457 16.5065L64.8439 15.2427L65.3421 13.9788L37.4936 3.00101L36.9954 4.26485ZM35.0026 4.26483L35.5008 5.52868C35.821 5.40248 36.1771 5.40249 36.4972 5.52868L36.9954 4.26485L37.4936 3.00101C36.5332 2.62241 35.4649 2.6224 34.5044 3.00099L35.0026 4.26483ZM5.44445 17.7873L6.80283 17.7698C6.79575 17.2187 7.13787 16.7089 7.65141 16.5065L7.15322 15.2427L6.65503 13.9788C5.09214 14.5949 4.06448 16.1242 4.08607 17.8047L5.44445 17.7873ZM37.3368 68.3206L36.663 67.141C36.254 67.3746 35.744 67.3746 35.3351 67.141L34.6612 68.3206L33.9874 69.5002C35.2315 70.2109 36.7666 70.2109 38.0107 69.5002L37.3368 68.3206ZM66.5526 17.7873L67.911 17.8047C67.9326 16.1242 66.9049 14.5949 65.3421 13.9788L64.8439 15.2427L64.3457 16.5065C64.8592 16.7089 65.2013 17.2186 65.1942 17.7698L66.5526 17.7873Z" fill="#ECECEC"/>
<rect x="25.8115" y="28.1211" width="20.3774" height="16.3019" rx="1.35849" fill="#ECECEC"/>
<rect x="31.2452" y="21.3282" width="9.50943" height="13.5849" rx="4.75472" stroke="#ECECEC" stroke-width="2.71698"/>
</svg>
