<svg width="27" height="27" viewBox="0 0 27 27" fill="none" xmlns="http://www.w3.org/2000/svg">
<path d="M20.0009 7.87976C20.3356 7.54504 20.3356 7.00192 20.0009 6.66718C19.6662 6.33244 19.1231 6.33244 18.7883 6.66718L6.66669 18.7888C6.33203 19.1236 6.33198 19.6667 6.66669 20.0014C7.00141 20.336 7.54455 20.336 7.87927 20.0014L20.0009 7.87976Z" fill="#ECECEC"/>
<path d="M6.66716 6.6676C6.33242 7.00234 6.33242 7.54505 6.66716 7.87978L18.789 20.0016C19.1237 20.3363 19.6664 20.3364 20.0012 20.0016C20.3359 19.6669 20.3359 19.1242 20.0012 18.7894L7.87934 6.6676C7.5446 6.33287 7.00189 6.33287 6.66716 6.6676Z" fill="#ECECEC"/>
</svg>
