<svg width="40" height="40" viewBox="0 0 40 40" fill="none" xmlns="http://www.w3.org/2000/svg">
<g opacity="0.6">
<path d="M16 11H13C11.8954 11 11 11.8954 11 13V27C11 28.1046 11.8954 29 13 29H27C28.1046 29 29 28.1046 29 27V24" stroke="#ECECEC" stroke-width="2"/>
<path d="M19.2929 19.2929C18.9024 19.6834 18.9024 20.3166 19.2929 20.7071C19.6834 21.0976 20.3166 21.0976 20.7071 20.7071L20 20L19.2929 19.2929ZM29 11H30V10H29V11ZM20 20L20.7071 20.7071L29.7071 11.7071L29 11L28.2929 10.2929L19.2929 19.2929L20 20ZM20 11V12H29V11V10H20V11ZM29 11H28V20H29H30V11H29Z" fill="#ECECEC"/>
</g>
</svg>
